<?xml version="1.0" encoding="UTF-8"?>
<svg id="BGs" xmlns="http://www.w3.org/2000/svg" viewBox="0 0 255.15 214.34">
  <defs>
    <style>
      .cls-1 {
        fill: #1469e2;
      }

      .cls-1, .cls-2 {
        stroke-width: 0px;
      }

      .cls-2 {
        fill: #fff;
      }
    </style>
  </defs>
  <path class="cls-1" d="m146.5,195.38c-5.92.29-11.67-1.64-17.01-4.89-1.4-.85-2.36-1.02-3.85-.1-10.66,6.54-21.91,7.07-32.84,1.39-11.61-6.03-17.64-16.13-17.73-29.38-.02-2.4-.82-2.81-2.98-2.83-25.83-.19-41.35-27.78-28.14-50.04,1.06-1.78,1.13-2.96,0-4.84-12.01-20.06-.29-45.79,22.62-49.8,1.97-.34,4.02-.32,6.03-.23,1.86.08,2.44-.5,2.45-2.44.04-9.54,3.39-17.71,10.32-24.42,10.41-10.08,27.62-12,39.84-4.19,1.72,1.1,2.82.99,4.56,0,10.67-6.05,21.75-6.77,32.65-.99,11.4,6.06,17.31,15.83,17.49,28.88.01.74-.06,1.47-.09,2.21-.08,1.67.8,2.22,2.87,2.14,15.84-.57,29.4,11.05,32.51,25.9,1.81,8.62.54,16.77-4.1,24.28-1.03,1.66-1.1,2.78-.08,4.53,9.59,16.36,4.88,35.78-11.02,45.68-5.34,3.32-11.21,4.92-17.52,4.57-1.97-.11-2.58.44-2.64,2.5-.56,18.43-14.61,32.06-33.35,32.08Z"/>
  <path class="cls-2" d="m99.21,107.18c14.68-5.29,23.53-15.32,29.31-29.29,2.65,7.21,6.32,13.04,11.36,17.99,4.99,4.9,10.82,8.46,18.08,11.2,0,0,0,0,0,0-13.95,5.8-24,14.75-29.33,29.24-2.95-6.86-6.33-12.82-11.25-17.81-4.98-5.05-10.8-8.71-18.16-11.33Z"/>
  <path class="cls-2" d="m161.39,77.9h0c0,1.62-1.31,2.93-2.93,2.93h-5.89v5.89c0,1.62-1.32,2.94-2.94,2.94h0c-1.62,0-2.94-1.32-2.94-2.94v-5.89h-5.89c-1.62,0-2.94-1.32-2.94-2.94h0c0-1.62,1.31-2.93,2.93-2.93h5.9v-5.9c0-1.61,1.32-2.93,2.93-2.93h0c1.62,0,2.94,1.32,2.94,2.94v5.89h5.88c1.62,0,2.94,1.32,2.94,2.94Z"/>
</svg>